<svg width="79" height="89" viewBox="0 0 79 89" fill="none" xmlns="http://www.w3.org/2000/svg">
<path fill-rule="evenodd" clip-rule="evenodd" d="M77.6937 23.15L77.0812 22.0562C76.2911 20.7336 75.1768 19.6344 73.8437 18.8625L44.4875 1.93125C43.1584 1.16016 41.6494 0.752712 40.1125 0.75H38.8437C37.3068 0.752712 35.7979 1.16016 34.4687 1.93125L5.1125 18.9062C3.78674 19.673 2.68551 20.7742 1.91875 22.1L1.30625 23.1937C0.535156 24.523 0.127712 26.032 0.125 27.5687V61.475C0.127712 63.0119 0.535156 64.5209 1.30625 65.85L1.91875 66.9437C2.70533 68.254 3.80214 69.3509 5.1125 70.1375L34.5125 87.0687C35.835 87.8558 37.3484 88.2644 38.8875 88.25H40.1125C41.6494 88.2474 43.1584 87.84 44.4875 87.0687L73.8437 70.0937C75.1825 69.3443 76.288 68.2387 77.0375 66.9L77.6937 65.8062C78.4554 64.4732 78.8623 62.9669 78.875 61.4312V27.525C78.8723 25.9882 78.465 24.4793 77.6937 23.15ZM38.8437 9.5H40.1125L65.75 24.2875L39.5 39.425L13.25 24.2875L38.8437 9.5ZM43.875 77.3125L69.4687 62.525L70.125 61.4312V31.8562L43.875 47.0375V77.3125Z" fill="#F2F2F2"/>
</svg>
