<svg width="56" height="62" viewBox="0 0 56 62" fill="none" xmlns="http://www.w3.org/2000/svg">
<path fill-rule="evenodd" clip-rule="evenodd" d="M54.9175 15.9533L54.4858 15.1825C53.929 14.2504 53.1436 13.4757 52.2041 12.9317L31.515 0.999172C30.5783 0.455734 29.5148 0.168583 28.4317 0.166672H27.5375C26.4543 0.168583 25.3909 0.455734 24.4542 0.999172L3.765 12.9625C2.83066 13.5029 2.05455 14.279 1.51417 15.2133L1.0825 15.9842C0.539062 16.921 0.251912 17.9845 0.25 19.0675V42.9633C0.251912 44.0465 0.539062 45.1099 1.0825 46.0467L1.51417 46.8175C2.06852 47.741 2.84151 48.5139 3.765 49.0683L24.485 61.0008C25.4171 61.5555 26.4836 61.8435 27.5683 61.8333H28.4317C29.5148 61.8315 30.5783 61.5444 31.515 61.0008L52.2041 49.0375C53.1476 48.5093 53.9268 47.7302 54.455 46.7867L54.9175 46.0158C55.4543 45.0763 55.741 44.0147 55.75 42.9325V19.0367C55.7481 17.9536 55.4611 16.8902 54.9175 15.9533ZM27.5375 6.33334H28.4317L46.5 16.755L28 27.4233L9.5 16.755L27.5375 6.33334ZM31.0833 54.125L49.1208 43.7033L49.5833 42.9325V22.0892L31.0833 32.7883V54.125Z" fill="#F2F2F2"/>
</svg>
